<svg xmlns="http://www.w3.org/2000/svg" id="Icon" height="512" viewBox="0 0 64 64" width="512"><path d="m61.6416 29.85791c-.51074-.93604-1.49023-1.51758-2.55664-1.51758h-.52393c-1.60156-11.70557-10.72266-21.03271-22.4707-22.83887-.54346-.08252-1.05664.28955-1.14014.83643-.08398.5459.29053 1.05615.83643 1.14014 11.14746 1.71436 19.73877 10.74658 20.89258 21.96484.05225.50977.48193.89746.99463.89746h1.41113c.48877 0 .72266.33252.80078.47559.07764.14258.23047.51904-.03418.92969l-3.18652 4.94922c-.24316.37744-.61719.41846-.7666.41846s-.52344-.04102-.7666-.41846l-3.18652-4.94922c-.26465-.41064-.11182-.78711-.03418-.92969.07813-.14307.31201-.47559.80078-.47559h1.10791c.28613 0 .55859-.12256.74854-.33691.18994-.21387.27881-.49951.24414-.7832-1.39599-11.51953-11.20361-20.20654-22.8125-20.20654-8.11621 0-15.71924 4.35938-19.84326 11.37695-.24805.42188-.75781.58447-1.18604.37793-.23535-.11328-.40674-.31396-.4834-.56494-.07373-.2417-.04541-.49268.07959-.70654 4.44727-7.59131 12.66016-12.30713 21.43311-12.30713.55225 0 1-.44775 1-1s-.44775-1-1-1c-9.47998 0-18.354 5.09473-23.15869 13.29639-.40479.69141-.50244 1.52979-.26709 2.30078.23779.77979.79492 1.42969 1.52832 1.7832 1.37451.66162 2.99902.16113 3.77881-1.1665 3.76563-6.40918 10.7085-10.39014 18.11865-10.39014 10.21924 0 18.90869 7.37256 20.66064 17.32715-1.04639.01807-2.00293.59619-2.50537 1.51709-.51025.93604-.46875 2.07471.1084 2.9707l3.18652 4.94922c.53857.83594 1.45361 1.33545 2.44824 1.33545s1.90967-.49951 2.44824-1.33545l3.18652-4.94922c.57715-.896.61865-2.03467.1084-2.9707z"></path><path d="m53.89746 41.42969c-1.37402-.66064-2.99902-.16064-3.77881 1.1665-3.76563 6.40918-10.7085 10.39014-18.11865 10.39014-10.21924 0-18.90869-7.37256-20.66064-17.32715 1.04639-.01807 2.00293-.59619 2.50537-1.51709.51025-.93604.46875-2.07471-.1084-2.9707l-3.18652-4.94922c-.53857-.83594-1.45361-1.33545-2.44824-1.33545s-1.90967.49951-2.44824 1.33545l-3.18652 4.94922c-.57715.896-.61865 2.03467-.1084 2.9707.51074.93604 1.49023 1.51758 2.55664 1.51758h.52393c1.59375 11.63135 10.64893 20.94824 22.31055 22.81396.55127.09326 1.05859-.28418 1.14551-.8291.0874-.54541-.28418-1.05859-.8291-1.14551-11.06787-1.771-19.59814-10.79395-20.74512-21.94189-.05225-.50977-.48193-.89746-.99463-.89746h-1.41113c-.48877 0-.72266-.33252-.80078-.47559-.07764-.14258-.23047-.51904.03418-.92969l3.18652-4.94922c.24316-.37744.61719-.41846.7666-.41846s.52344.04102.7666.41846l3.18652 4.94922c.26465.41064.11182.78711.03418.92969-.07813.14307-.31201.47559-.80078.47559h-1.10791c-.28613 0-.55859.12256-.74854.33691-.18994.21387-.27881.49951-.24414.7832 1.396 11.51953 11.20361 20.20654 22.8125 20.20654 8.11621 0 15.71924-4.35938 19.84326-11.37695.24805-.42188.75732-.58545 1.18604-.37793.23535.11328.40674.31396.4834.56494.07373.2417.04541.49268-.07959.70654-4.44727 7.59131-12.66016 12.30713-21.43311 12.30713-.55225 0-1 .44775-1 1s.44775 1 1 1c9.47998 0 18.354-5.09473 23.15869-13.29639.40479-.69141.50244-1.52979.26709-2.30078-.23779-.77979-.79492-1.42969-1.52832-1.7832z"></path><path d="m29.43896 42.34131c.93955.00211 1.83631-.44599 2.3999-1.19873l11.0249-14.68213c.48096-.64111.68359-1.43066.57129-2.22363-.11279-.79346-.52783-1.49561-1.16846-1.97607-.64063-.48193-1.43164-.68652-2.22412-.57178-.79346.11279-1.49561.52783-1.97656 1.16846l-8.94971 11.91748-3.46045-3.45996c-1.16992-1.16992-3.07275-1.16895-4.24268 0-1.16895 1.16992-1.16895 3.07275.00049 4.24268l5.90479 5.90479c.56494.56494 1.32813.87891 2.12061.87891zm-6.61133-9.61182c.19482-.19531.45117-.29248.70703-.29248.25635 0 .51221.09717.70703.29199l4.27539 4.2749c.20459.20508.47949.3042.77783.29053.28906-.02051.55469-.16553.729-.39697l9.6416-12.83887c.16016-.21387.39404-.35205.65869-.38965.26123-.03857.52734.02979.74121.19092.21387.16016.35205.39404.38916.6582.0376.26416-.02979.52783-.19043.74121l-11.0249 14.68213c-.17676.23535-.43555.37646-.729.39746-.2915.02051-.56934-.08203-.77783-.29053l-5.9043-5.90479c-.39014-.39014-.39014-1.02441-.00049-1.41406z"></path></svg>